<?xml version="1.0" standalone="no"?>
<!DOCTYPE svg PUBLIC "-//W3C//DTD SVG 20010904//EN"
 "http://www.w3.org/TR/2001/REC-SVG-20010904/DTD/svg10.dtd">
<svg version="1.0" xmlns="http://www.w3.org/2000/svg"
 width="256.000000pt" height="256.000000pt" viewBox="0 0 256.000000 256.000000"
 preserveAspectRatio="xMidYMid meet">
<metadata>
Created by potrace 1.11, written by Peter Selinger 2001-2013
</metadata>
<g transform="translate(0.000000,256.000000) scale(0.100000,-0.100000)"
fill="#000000" stroke="none">
<path d="M1870 2393 c-52 -12 -68 -15 -130 -28 -14 -2 -38 -8 -55 -11 -16 -4
-39 -8 -50 -10 -11 -2 -29 -5 -40 -7 -26 -6 -41 3 -24 14 8 5 9 9 3 9 -5 0
-19 -7 -30 -15 -16 -13 -16 -14 -1 -9 9 3 17 2 17 -4 0 -6 -8 -9 -17 -7 -10 1
-24 -3 -32 -9 -11 -8 -13 -8 -7 2 4 6 2 12 -3 12 -6 0 -11 -4 -11 -8 0 -4 -23
-13 -51 -18 -44 -10 -51 -9 -60 7 -6 11 -6 20 1 24 19 12 4 50 -21 52 -21 2
-21 1 -4 -5 27 -10 31 -38 5 -38 -13 0 -19 5 -15 14 2 7 0 10 -5 7 -6 -3 -10
-1 -10 6 0 7 -3 10 -6 7 -10 -11 16 -47 29 -42 8 3 14 -1 14 -8 0 -7 4 -21 8
-30 5 -12 2 -16 -11 -14 -9 1 -33 -3 -53 -10 -45 -16 -61 -17 -61 -3 0 5 5 7
11 3 6 -3 3 5 -6 20 -20 29 -30 35 -17 9 5 -10 6 -27 1 -38 -8 -20 -9 -17 -13
25 0 8 -9 14 -18 12 -13 -2 -16 2 -11 15 5 15 3 15 -10 -2 -18 -23 -22 -45 -7
-45 5 0 7 6 4 13 -3 8 3 13 16 13 23 0 25 -7 8 -25 -10 -11 -10 -13 0 -7 6 4
12 3 12 -1 0 -5 -18 -14 -40 -19 -22 -6 -37 -7 -34 -3 3 5 1 9 -5 9 -5 0 -11
-4 -13 -10 -1 -5 -18 -10 -35 -12 -18 -1 -33 -7 -33 -12 0 -5 -3 -7 -6 -3 -3
3 -17 2 -31 -4 -16 -6 -22 -6 -18 1 3 6 1 10 -4 10 -6 0 -11 -4 -11 -9 0 -13
-33 -7 -38 7 -2 7 -9 12 -15 12 -8 0 -7 -4 1 -12 17 -17 15 -28 -4 -28 -8 0
-12 5 -9 10 3 6 2 10 -4 10 -17 0 -8 41 11 51 20 11 24 29 7 29 -5 0 -7 -5 -3
-11 4 -8 -1 -9 -17 -5 -13 3 -18 3 -11 0 15 -7 6 -24 -14 -24 -8 0 -12 5 -9
10 3 6 1 10 -4 10 -6 0 -11 -7 -11 -15 0 -8 -6 -15 -12 -16 -7 0 -21 -2 -31
-4 -9 -2 -17 2 -17 8 0 7 -9 18 -19 24 -18 11 -19 10 -16 -16 3 -26 1 -29 -21
-26 -13 1 -24 -2 -24 -8 0 -5 -13 -7 -29 -5 -17 2 -28 1 -25 -3 2 -4 0 -10 -6
-14 -5 -3 -10 -2 -10 4 0 5 -12 3 -28 -4 -15 -8 -43 -17 -62 -20 -19 -3 -72
-15 -118 -25 -46 -11 -98 -22 -115 -25 -68 -13 -133 -59 -163 -117 -20 -38
-27 -124 -13 -150 8 -15 7 -23 -8 -34 -14 -11 -14 -13 -2 -8 12 4 18 -3 22
-25 4 -17 4 -38 0 -48 -4 -10 -2 -14 4 -10 6 4 13 -4 15 -18 3 -15 1 -25 -6
-25 -6 0 -4 -5 4 -10 8 -5 12 -10 8 -10 -4 0 -3 -11 2 -25 7 -18 6 -25 -3 -25
-8 0 -7 -4 3 -10 8 -5 11 -10 6 -10 -5 0 -3 -7 4 -15 10 -12 9 -15 -4 -15 -10
0 -14 -5 -11 -10 4 -6 11 -8 17 -4 5 3 8 -2 7 -12 -2 -11 3 -29 9 -42 7 -12
10 -27 7 -32 -3 -6 -2 -10 3 -10 5 0 9 -6 9 -12 1 -7 3 -30 6 -51 4 -23 2 -35
-4 -31 -6 3 -8 13 -5 21 3 8 2 12 -3 9 -5 -3 -9 5 -10 19 -1 14 -1 37 -2 52
-1 16 -4 21 -9 14 -5 -9 -9 -8 -14 4 -3 9 -4 20 -1 24 2 4 -2 8 -9 8 -8 0 -12
-11 -11 -29 1 -15 -3 -28 -8 -28 -6 0 -7 -3 -4 -6 4 -4 13 -1 22 6 9 8 15 8
15 2 0 -6 -4 -13 -9 -16 -11 -7 -11 -55 0 -62 5 -3 6 1 3 9 -3 8 2 19 10 26
11 10 14 7 15 -14 3 -70 4 -79 8 -67 8 21 19 13 21 -14 1 -15 -4 -34 -10 -42
-9 -11 -9 -14 -1 -9 8 5 11 0 10 -14 -1 -15 -7 -19 -23 -16 -11 2 -21 -2 -21
-8 0 -7 10 -10 24 -7 17 3 23 0 23 -12 0 -11 -5 -14 -12 -10 -8 5 -8 3 -2 -7
5 -8 10 -70 11 -139 2 -69 4 -153 5 -188 2 -34 0 -62 -4 -62 -4 0 -5 -6 -3
-12 10 -27 10 -158 0 -158 -7 0 -7 -3 0 -8 6 -4 11 -34 11 -67 2 -74 7 -115
14 -115 3 0 11 -15 19 -32 8 -18 26 -49 40 -68 14 -19 25 -39 23 -43 -1 -5 2
-6 7 -2 6 3 25 -2 43 -11 18 -10 45 -17 61 -15 19 2 27 -2 25 -11 -2 -8 6 -13
22 -13 15 0 24 5 22 13 -1 6 1 12 5 13 5 0 16 2 26 4 9 2 17 -1 17 -6 0 -6 6
-7 13 -2 18 11 38 13 31 2 -3 -5 0 -9 5 -9 6 0 11 5 11 10 0 6 11 10 25 10 28
0 67 -29 58 -43 -3 -5 -9 -3 -14 4 -6 10 -8 7 -6 -8 1 -15 5 -19 13 -13 6 6
15 6 19 2 5 -4 5 -2 1 5 -4 7 3 17 15 24 19 10 25 8 41 -12 11 -13 16 -17 12
-9 -15 32 -37 51 -45 39 -4 -6 -12 -8 -18 -5 -23 15 -9 22 47 22 33 1 63 3 68
6 5 3 42 5 82 4 39 -1 72 1 72 4 0 3 28 6 63 7 34 1 78 4 97 6 19 2 41 -1 49
-7 11 -8 13 -8 7 2 -4 6 -2 12 3 12 6 0 11 -4 11 -10 0 -5 5 -10 11 -10 5 0 7
4 4 10 -4 6 8 10 30 10 22 0 34 -4 30 -10 -3 -6 -1 -10 4 -10 6 0 11 7 11 16
0 8 5 12 10 9 6 -4 7 -11 4 -17 -4 -6 -2 -8 4 -4 5 3 13 0 16 -6 3 -7 4 -4 1
7 -4 15 0 21 15 22 11 1 18 -2 15 -7 -3 -5 -1 -12 5 -15 6 -4 9 -1 8 7 -2 9 6
12 25 11 15 -1 26 1 23 5 -2 4 7 7 20 7 15 0 24 -6 24 -15 0 -13 2 -13 9 -1
15 23 61 25 76 4 7 -10 17 -15 21 -10 4 4 2 7 -4 7 -28 0 -9 18 23 22 25 3 35
0 35 -10 0 -7 5 -10 10 -7 6 4 8 9 6 13 -2 4 11 8 30 9 22 2 37 -3 44 -15 10
-14 11 -14 6 0 -7 24 5 30 20 10 9 -13 9 -19 1 -24 -9 -6 -8 -8 2 -8 11 0 11
-3 0 -18 -13 -15 -12 -16 3 -4 16 13 18 28 5 48 -4 7 0 15 9 18 8 3 12 2 9 -4
-3 -6 -1 -10 4 -10 6 0 11 4 11 8 0 13 44 12 52 -1 6 -9 8 -9 8 1 0 7 12 12
28 12 15 -1 54 1 87 4 33 2 98 7 144 11 45 3 98 12 117 20 19 8 34 12 34 10 0
-18 53 56 80 111 40 81 42 134 15 309 -2 17 -7 54 -9 82 -3 29 -8 63 -11 75
-2 13 -7 47 -9 77 -4 43 -1 57 12 67 15 11 14 12 -7 7 -16 -4 -22 -2 -17 5 3
5 2 22 -4 36 -7 19 -6 26 3 26 7 0 8 3 2 8 -5 4 -11 16 -11 27 -1 11 -5 42 -8
68 -5 37 -3 47 6 41 7 -4 4 2 -6 14 -11 12 -14 22 -8 22 7 0 12 5 12 11 0 5
-6 7 -12 3 -7 -4 -10 -4 -6 0 3 4 2 21 -2 37 -5 18 -5 27 1 24 5 -4 9 -2 9 4
0 5 -4 11 -9 13 -5 2 -11 28 -14 58 -5 55 6 95 23 85 5 -3 7 4 5 16 -3 13 -10
26 -16 29 -6 4 -10 10 -9 14 1 4 0 12 -3 19 -2 6 -4 -4 -3 -24 1 -28 5 -35 16
-31 11 4 10 -1 -4 -16 -11 -12 -20 -22 -21 -22 0 0 -1 18 -2 40 0 22 -4 52 -7
66 -5 17 -3 23 4 19 5 -3 10 -1 10 4 0 6 -5 11 -12 11 -6 0 -9 3 -5 6 3 4 -1
13 -9 21 -8 8 -11 19 -8 25 4 7 2 8 -5 4 -6 -4 -9 -11 -6 -16 3 -5 -3 -9 -12
-9 -10 1 -30 -2 -45 -5 -16 -4 -28 -2 -28 4 0 5 -8 10 -17 10 -15 0 -16 -2 -3
-10 10 -6 0 -8 -33 -7 -26 1 -47 0 -47 -3 0 -3 -28 -5 -63 -5 -34 0 -74 -3
-89 -7 -19 -4 -28 -3 -28 5 0 8 -3 8 -8 2 -4 -5 -18 -11 -32 -12 -41 -3 -248
-14 -347 -18 -51 -2 -108 -6 -127 -9 -20 -3 -35 -3 -35 2 4 21 -2 42 -11 42
-7 0 -7 -6 0 -19 12 -24 7 -28 -45 -29 -22 -1 -59 -3 -83 -5 -35 -3 -42 0 -37
12 3 9 3 12 -1 8 -4 -4 -13 -2 -21 4 -9 9 -13 8 -13 0 0 -6 5 -11 10 -11 6 0
10 -4 10 -8 0 -5 -16 -9 -35 -10 -25 -1 -34 2 -30 11 4 7 0 4 -8 -5 -13 -16
-15 -16 -32 0 -10 9 -15 11 -11 5 5 -8 1 -13 -11 -14 -10 0 -43 -2 -73 -4 -33
-2 -49 0 -39 5 8 5 27 7 42 6 15 -2 27 1 27 5 0 5 3 8 8 7 4 -1 17 2 30 6 15
5 29 3 39 -6 15 -11 16 -11 10 5 -4 10 -2 17 5 17 6 0 20 -8 31 -17 19 -18 20
-17 7 6 -8 16 -8 21 -1 16 7 -4 18 -1 26 5 11 9 15 9 15 1 0 -6 5 -11 11 -11
5 0 8 4 5 8 -3 5 10 14 29 20 19 5 33 6 29 1 -7 -12 9 -12 21 0 18 16 65 22
61 9 -1 -7 -1 -10 1 -5 3 4 9 5 14 2 5 -4 6 0 3 8 -2 7 1 14 8 15 18 1 70 12
77 16 7 5 32 -21 30 -31 0 -4 4 -8 11 -9 7 -2 7 -1 0 3 -7 3 -5 12 6 24 10 11
12 19 6 19 -7 0 -12 -5 -12 -11 0 -5 -5 -7 -11 -4 -14 9 -5 17 23 21 13 2 36
6 51 9 20 4 26 2 22 -5 -4 -6 -13 -9 -21 -6 -8 3 -11 0 -7 -10 8 -21 18 -17
33 11 8 14 20 23 27 21 7 -3 13 -1 13 4 0 5 11 7 25 4 14 -2 25 0 25 5 0 4 11
9 25 10 47 3 55 4 55 12 0 4 10 7 23 7 12 0 31 2 42 5 11 2 26 -1 34 -7 12 -9
13 -8 9 6 -5 11 -2 15 10 13 9 -1 23 2 30 8 8 6 12 6 12 -2 0 -6 -5 -11 -12
-11 -6 0 -8 -3 -4 -7 4 -4 16 3 27 17 18 22 19 22 10 3 -9 -17 -8 -24 5 -31
11 -6 13 -11 5 -16 -6 -4 -11 -3 -11 2 0 12 -63 10 -72 -3 -5 -7 -8 -6 -8 1 0
12 -49 13 -67 1 -8 -5 -13 -4 -13 3 0 6 -5 8 -11 4 -8 -4 -7 -9 2 -16 11 -8
10 -9 -3 -4 -23 7 -23 4 3 -17 18 -16 20 -16 17 -1 -2 9 2 19 9 21 12 4 11
-24 -2 -50 -4 -6 2 -1 14 13 16 20 22 23 32 13 18 -18 30 -16 27 5 -5 27 44
23 58 -6 6 -12 14 -26 18 -29 10 -10 -5 29 -17 45 -7 9 -4 11 11 9 24 -3 42
-17 24 -17 -7 0 -12 -5 -12 -12 0 -6 3 -8 7 -5 3 4 13 1 21 -6 13 -10 14 -9 8
2 -7 10 -3 12 15 6 19 -5 21 -4 9 4 -13 9 -13 11 3 11 9 0 17 5 17 10 0 17 24
6 42 -20 10 -14 18 -20 18 -13 0 6 -4 15 -10 18 -5 3 -10 11 -10 17 0 6 10 3
22 -8 12 -10 18 -14 15 -8 -4 8 2 12 16 12 46 1 68 7 77 22 5 8 13 11 17 6 4
-4 -1 -15 -12 -24 -28 -23 -26 -48 3 -45 13 2 21 -1 18 -5 -2 -4 0 -14 5 -22
7 -11 8 -8 5 10 -3 19 -9 24 -25 23 -23 -3 -22 6 7 39 7 9 11 22 7 27 -3 6 -2
11 4 11 14 0 43 -31 36 -38 -3 -4 -10 0 -15 8 -6 9 -10 10 -10 3 0 -17 20 -27
32 -15 7 7 3 17 -11 31 -12 12 -19 26 -16 32 4 5 3 9 -2 8 -20 -3 -27 2 -13
11 13 9 13 10 0 10 -13 0 -13 1 0 11 12 8 10 9 -9 4 -17 -5 -21 -4 -16 5 5 8
3 11 -5 8 -7 -2 -14 -11 -16 -20 -1 -11 4 -14 20 -11 19 4 19 3 3 -7 -9 -6
-21 -9 -25 -6 -5 3 -9 -1 -9 -9 0 -8 5 -11 10 -8 6 3 7 1 3 -6 -6 -9 -11 -9
-22 0 -12 10 -13 9 -8 -5 3 -9 12 -16 20 -16 8 0 14 -4 14 -9 0 -5 -11 -8 -24
-8 -17 0 -23 5 -22 20 1 11 -6 22 -14 24 -13 4 -13 3 0 -6 8 -6 10 -11 5 -11
-6 0 -17 6 -24 13 -11 10 -13 9 -7 -3 7 -13 6 -13 -6 0 -18 21 -34 22 -49 3
-12 -14 -11 -15 11 -8 22 7 23 6 11 -9 -13 -15 -15 -15 -34 1 -11 10 -17 12
-13 6 5 -9 2 -11 -11 -7 -13 4 -15 3 -5 -4 17 -12 15 -24 -5 -36 -10 -5 -21
-2 -32 9 -15 16 -15 17 5 11 19 -6 22 -3 20 24 -1 29 -6 36 -19 24 -3 -4 -2
-15 4 -26 9 -18 8 -18 -10 -9 -35 19 -10 49 47 56 19 3 22 0 16 -18 -6 -19 -5
-20 9 -8 9 7 15 17 12 21 -3 4 3 11 13 15 28 13 42 14 42 4 0 -6 -7 -9 -16 -7
-10 2 -19 -2 -21 -8 -2 -7 6 -11 19 -10 13 1 30 -1 39 -6 11 -5 22 -2 30 9 12
14 12 16 -2 11 -9 -3 -22 -2 -30 3 -12 7 -12 10 0 21 9 8 11 9 7 1 -3 -6 -2
-14 3 -17 5 -4 13 3 16 15 4 11 12 18 18 16 30 -11 55 12 66 61 12 57 11 60
-24 166 -32 98 -43 117 -80 148 -58 48 -109 56 -215 31z m-1070 -161 c0 -15
-2 -15 -10 -2 -13 20 -13 33 0 25 6 -3 10 -14 10 -23z m1375 -311 c3 -6 -4
-15 -15 -21 -22 -12 -23 -10 -14 14 7 18 20 21 29 7z m-94 -30 c9 -1 7 -31 -3
-31 -4 0 -8 8 -8 17 0 15 -1 15 -13 -2 -10 -13 -16 -15 -21 -6 -4 6 -13 8 -19
4 -7 -4 -6 0 2 10 7 9 22 15 35 13 11 -3 24 -5 27 -5z m-87 -9 c3 -5 -1 -9 -9
-9 -8 0 -12 4 -9 9 3 4 7 8 9 8 2 0 6 -4 9 -8z m-193 -11 c3 -1 6 -8 6 -16 0
-11 -4 -12 -13 -4 -7 6 -17 8 -22 5 -5 -3 -9 1 -9 8 0 8 7 12 16 11 9 -2 19
-4 22 -4z m-1589 -443 c-7 -7 -12 -8 -12 -2 0 14 12 26 19 19 2 -3 -1 -11 -7
-17z m528 -1153 c14 -19 14 -19 -2 -6 -10 7 -18 18 -18 24 0 6 1 8 3 6 1 -2 9
-13 17 -24z m-210 0 c10 -13 9 -15 -8 -15 -15 0 -20 5 -16 15 4 8 7 15 9 15 1
0 8 -7 15 -15z"/>
<path d="M1156 2391 c-4 -5 -2 -12 3 -15 5 -4 12 -2 15 3 4 5 2 12 -3 15 -5 4
-12 2 -15 -3z"/>
<path d="M1211 2394 c-1 -6 2 -13 5 -17 8 -8 34 3 34 15 0 6 -6 6 -14 -1 -11
-9 -15 -9 -19 1 -3 7 -6 8 -6 2z"/>
<path d="M1270 2390 c0 -5 7 -10 15 -10 9 0 12 -6 9 -15 -5 -12 -9 -13 -20 -4
-8 7 -16 10 -19 8 -2 -3 5 -10 15 -17 16 -10 21 -9 30 8 8 15 6 21 -10 30 -13
7 -20 7 -20 0z"/>
<path d="M1184 2365 c-3 -13 -11 -23 -17 -22 -6 1 -13 -6 -15 -15 -2 -10 1
-18 7 -18 6 0 7 7 4 17 -4 11 -3 14 6 9 8 -5 14 -1 18 13 3 11 9 18 14 15 5
-3 6 2 3 10 -8 22 -13 20 -20 -9z"/>
<path d="M1405 2380 c-9 -14 22 -60 38 -59 9 0 9 2 -1 6 -6 2 -9 10 -6 15 5 7
2 8 -6 3 -10 -6 -12 -4 -7 9 5 11 3 15 -5 10 -8 -5 -9 -2 -5 9 7 19 2 23 -8 7z"/>
<path d="M1070 2369 c-11 -8 -9 -9 10 -3 22 6 23 5 11 -9 -7 -9 -17 -14 -22
-12 -4 3 -13 -4 -19 -15 -7 -13 -7 -20 0 -20 5 0 10 7 10 16 0 8 3 13 8 10 12
-7 45 22 37 33 -8 14 -16 14 -35 0z"/>
<path d="M1444 2368 c-3 -4 3 -5 13 -1 15 6 16 4 5 -9 -9 -11 -10 -18 -2 -23
13 -8 42 13 35 25 -3 5 1 10 7 12 7 3 -2 5 -20 5 -18 0 -35 -4 -38 -9z m41
-18 c-3 -5 -11 -10 -16 -10 -6 0 -7 5 -4 10 3 6 11 10 16 10 6 0 7 -4 4 -10z"/>
<path d="M998 2356 c-15 -8 -29 -12 -31 -10 -7 8 -57 -18 -52 -27 3 -4 1 -10
-5 -14 -5 -3 -10 2 -10 11 0 10 -3 15 -6 11 -4 -3 -4 -13 -1 -21 7 -18 37 -10
37 9 0 16 25 26 45 19 8 -4 15 -1 15 5 0 6 6 11 14 11 8 0 18 5 21 10 8 13 5
13 -27 -4z"/>
<path d="M1036 2355 c-9 -26 -7 -32 5 -12 6 10 9 21 6 23 -2 3 -7 -2 -11 -11z"/>
<path d="M1130 2360 c0 -5 5 -10 10 -10 6 0 10 5 10 10 0 6 -4 10 -10 10 -5 0
-10 -4 -10 -10z"/>
<path d="M1520 2360 c-8 -5 -12 -12 -9 -15 4 -3 12 1 19 10 14 17 11 19 -10 5z"/>
<path d="M1228 2353 c6 -2 10 -9 7 -14 -4 -5 2 -6 11 -2 11 4 15 3 10 -5 -10
-16 11 -25 31 -12 15 9 14 10 -6 4 -15 -4 -21 -2 -17 4 6 10 -24 33 -41 31 -4
0 -2 -3 5 -6z"/>
<path d="M1206 2337 c3 -10 9 -15 12 -12 3 3 0 11 -7 18 -10 9 -11 8 -5 -6z"/>
<path d="M1310 2344 c0 -13 18 -39 24 -34 2 3 -2 14 -10 24 -8 11 -14 16 -14
10z"/>
<path d="M1110 2330 c0 -5 5 -10 10 -10 6 0 10 5 10 10 0 6 -4 10 -10 10 -5 0
-10 -4 -10 -10z"/>
<path d="M996 2314 c-9 -24 -2 -26 12 -4 7 11 8 20 3 20 -5 0 -12 -7 -15 -16z"/>
<path d="M1080 2315 c-7 -9 -11 -17 -9 -20 3 -2 10 5 17 15 14 24 10 26 -8 5z"/>
<path d="M1390 2326 c0 -2 7 -7 16 -10 8 -3 12 -2 9 4 -6 10 -25 14 -25 6z"/>
<path d="M860 2312 c0 -6 -8 -9 -17 -6 -15 5 -16 4 -3 -5 16 -11 40 3 27 16
-4 3 -7 1 -7 -5z"/>
<path d="M950 2310 c0 -5 7 -7 15 -4 8 4 15 8 15 10 0 2 -7 4 -15 4 -8 0 -15
-4 -15 -10z"/>
<path d="M1009 2289 c-6 -11 -8 -23 -5 -27 3 -3 6 0 6 8 0 10 3 10 18 -1 14
-11 15 -11 5 1 -18 20 -16 35 2 20 9 -7 17 -11 20 -9 2 3 -5 10 -15 17 -16 10
-21 9 -31 -9z"/>
<path d="M1090 2289 c-7 -11 -9 -23 -6 -27 3 -3 6 0 6 7 0 7 4 9 10 6 6 -4 7
1 3 11 -5 13 -3 15 7 9 9 -5 11 -4 6 3 -10 16 -14 15 -26 -9z"/>
<path d="M1130 2301 c0 -6 4 -11 9 -11 5 0 11 -9 14 -20 3 -11 11 -20 19 -19
10 0 10 2 1 6 -7 2 -13 10 -13 18 0 7 -7 18 -15 25 -10 9 -15 9 -15 1z"/>
<path d="M1290 2306 c0 -2 6 -9 14 -15 11 -9 16 -9 22 0 4 8 3 9 -4 5 -7 -4
-12 -2 -12 3 0 6 -4 11 -10 11 -5 0 -10 -2 -10 -4z"/>
<path d="M810 2280 c0 -5 5 -10 10 -10 6 0 10 5 10 10 0 6 -4 10 -10 10 -5 0
-10 -4 -10 -10z"/>
<path d="M1108 2258 c-10 -10 -14 -18 -9 -18 10 0 36 29 30 34 -2 1 -12 -6
-21 -16z"/>
<path d="M960 2260 c-8 -5 -12 -11 -9 -14 3 -3 14 1 25 9 21 16 8 20 -16 5z"/>
<path d="M1045 2250 c-3 -11 -11 -20 -16 -20 -6 0 -7 5 -4 10 3 6 1 10 -5 10
-7 0 -10 -5 -8 -12 8 -22 25 -19 42 7 9 14 12 25 7 25 -5 0 -13 -9 -16 -20z"/>
<path d="M730 2256 c0 -2 7 -9 15 -16 13 -11 14 -10 9 4 -5 14 -24 23 -24 12z"/>
<path d="M974 2234 c-18 -14 -18 -15 4 -4 12 6 22 13 22 15 0 8 -5 6 -26 -11z"/>
<path d="M700 2230 c-9 -6 -10 -10 -3 -10 6 0 15 5 18 10 8 12 4 12 -15 0z"/>
<path d="M2115 1971 c-3 -5 -2 -12 3 -15 5 -3 9 1 9 9 0 17 -3 19 -12 6z"/>
<path d="M1953 1925 c0 -8 4 -15 9 -15 4 0 8 7 8 15 0 8 -4 15 -8 15 -5 0 -9
-7 -9 -15z"/>
<path d="M1830 1900 c0 -5 5 -10 11 -10 5 0 7 5 4 10 -3 6 -8 10 -11 10 -2 0
-4 -4 -4 -10z"/>
<path d="M1682 1873 c-6 -2 -10 -9 -6 -14 8 -13 -10 -11 -24 3 -7 7 -12 10
-13 8 0 -3 -2 -15 -5 -27 -5 -31 11 -37 34 -12 13 13 22 17 27 10 3 -6 11 -11
18 -11 6 0 3 6 -8 13 -10 8 -15 19 -11 25 8 13 7 13 -12 5z m-29 -44 c-9 -9
-12 -7 -10 9 1 14 5 18 11 12 7 -7 6 -14 -1 -21z"/>
<path d="M1591 1850 c-14 -8 -7 -30 9 -30 11 0 21 28 12 34 -5 3 -14 1 -21 -4z"/>
<path d="M1839 1851 c9 -6 10 -11 2 -15 -6 -4 -11 -12 -11 -19 0 -6 6 -2 14 8
15 21 12 35 -7 35 -8 0 -8 -3 2 -9z"/>
<path d="M1556 1835 c-3 -8 -1 -15 4 -15 6 0 10 7 10 15 0 8 -2 15 -4 15 -2 0
-6 -7 -10 -15z"/>
<path d="M1994 1842 c3 -5 0 -13 -6 -15 -8 -3 -6 -6 5 -6 19 -1 23 14 5 25 -6
4 -8 3 -4 -4z"/>
<path d="M2100 1840 c0 -5 5 -10 10 -10 6 0 10 5 10 10 0 6 -4 10 -10 10 -5 0
-10 -4 -10 -10z"/>
<path d="M2170 1846 c0 -2 7 -7 16 -10 8 -3 12 -2 9 4 -6 10 -25 14 -25 6z"/>
<path d="M2220 1840 c-9 -6 -10 -10 -3 -10 6 0 15 5 18 10 8 12 4 12 -15 0z"/>
<path d="M2076 1827 c3 -10 9 -15 12 -12 3 3 0 11 -7 18 -10 9 -11 8 -5 -6z"/>
<path d="M1476 1814 c-4 -9 -4 -19 -1 -22 3 -3 5 0 5 7 0 7 4 9 10 6 6 -3 7 1
4 9 -8 20 -10 20 -18 0z"/>
<path d="M1859 1828 c-7 -23 -4 -35 7 -35 9 0 11 4 4 12 -5 7 -7 15 -3 18 3 4
3 7 0 7 -4 0 -7 -1 -8 -2z"/>
<path d="M2060 1810 c6 -11 15 -20 20 -20 6 0 2 9 -7 20 -10 11 -19 20 -21 20
-1 0 2 -9 8 -20z"/>
<path d="M2230 1815 c-11 -13 -10 -14 4 -9 9 3 16 10 16 15 0 13 -6 11 -20 -6z"/>
<path d="M2201 1804 c0 -11 3 -14 6 -6 3 7 2 16 -1 19 -3 4 -6 -2 -5 -13z"/>
<path d="M1371 1789 c5 -11 16 -15 29 -12 16 4 19 2 14 -13 -5 -15 -4 -16 4
-4 14 19 4 33 -19 27 -11 -3 -19 -1 -19 3 0 5 8 11 18 13 9 3 5 4 -10 4 -22
-1 -25 -4 -17 -18z"/>
<path d="M1716 1802 c-3 -5 1 -9 9 -9 8 0 12 4 9 9 -3 4 -7 8 -9 8 -2 0 -6 -4
-9 -8z"/>
<path d="M1961 1796 c-9 -11 -9 -16 0 -22 7 -4 9 -3 5 4 -3 6 2 15 11 21 10 6
13 11 7 11 -6 0 -17 -6 -23 -14z"/>
<path d="M2100 1806 c0 -2 7 -6 15 -10 8 -3 15 -1 15 4 0 6 -7 10 -15 10 -8 0
-15 -2 -15 -4z"/>
<path d="M1348 1785 c5 -11 11 -24 12 -30 1 -5 3 -12 6 -14 2 -2 1 7 -1 19 -3
13 -10 28 -16 34 -9 8 -9 6 -1 -9z"/>
<path d="M1550 1776 c7 -7 13 -7 20 0 6 6 3 10 -10 10 -13 0 -16 -4 -10 -10z"/>
<path d="M1650 1779 c0 -5 5 -7 10 -4 6 3 10 8 10 11 0 2 -4 4 -10 4 -5 0 -10
-5 -10 -11z"/>
<path d="M1810 1779 c0 -5 5 -7 10 -4 6 3 10 8 10 11 0 2 -4 4 -10 4 -5 0 -10
-5 -10 -11z"/>
<path d="M1985 1779 c-3 -4 2 -6 10 -5 21 3 28 13 10 13 -9 0 -18 -4 -20 -8z"/>
<path d="M1235 1755 c-16 -13 -26 -24 -22 -25 4 0 18 9 30 20 12 11 27 18 34
16 7 -3 13 -1 13 4 0 17 -24 11 -55 -15z"/>
<path d="M1195 1760 c3 -5 1 -10 -4 -10 -6 0 -11 -5 -11 -11 0 -8 5 -8 15 1
17 14 20 30 4 30 -5 0 -7 -4 -4 -10z"/>
<path d="M2317 1597 c-3 -8 3 -14 16 -15 12 0 17 2 12 6 -6 4 -13 11 -16 15
-4 4 -9 2 -12 -6z"/>
<path d="M2325 1554 c17 -17 29 -18 19 -2 -5 8 -2 9 9 5 10 -3 17 -2 17 3 0 5
-13 8 -29 8 -25 -1 -27 -3 -16 -14z"/>
<path d="M176 1542 c-3 -4 4 -9 15 -9 23 -2 25 3 4 10 -8 4 -16 3 -19 -1z"/>
<path d="M2352 1531 c-11 -6 -10 -10 0 -19 11 -8 14 -7 14 9 0 10 0 19 -1 19
0 0 -6 -4 -13 -9z"/>
<path d="M2320 1524 c1 -16 29 -60 29 -44 0 8 -6 24 -14 34 -8 11 -15 16 -15
10z"/>
<path d="M2337 1453 c-10 -10 -8 -23 4 -23 5 0 8 4 4 9 -3 5 5 12 17 14 21 4
21 4 2 6 -11 0 -24 -2 -27 -6z"/>
<path d="M2375 1420 c-3 -5 -1 -10 4 -10 6 0 11 5 11 10 0 6 -2 10 -4 10 -3 0
-8 -4 -11 -10z"/>
<path d="M2353 1394 c0 -17 2 -22 7 -13 5 6 6 18 3 26 -8 19 -10 16 -10 -13z"/>
<path d="M170 1380 c0 -5 5 -10 11 -10 5 0 7 5 4 10 -3 6 -8 10 -11 10 -2 0
-4 -4 -4 -10z"/>
<path d="M2370 1369 c-7 -11 -9 -23 -7 -26 3 -2 8 5 12 16 3 12 11 18 17 15 7
-4 8 -2 4 4 -10 16 -14 15 -26 -9z"/>
<path d="M205 1360 c3 -5 8 -10 11 -10 2 0 4 5 4 10 0 6 -5 10 -11 10 -5 0 -7
-4 -4 -10z"/>
<path d="M160 1356 c0 -2 7 -7 16 -10 8 -3 12 -2 9 4 -6 10 -25 14 -25 6z"/>
<path d="M210 1329 c0 -5 -6 -7 -12 -3 -7 4 -9 3 -5 -1 13 -15 36 -14 30 1 -6
17 -13 18 -13 3z"/>
<path d="M232 1304 c-7 -8 -8 -14 -3 -14 10 0 25 19 20 25 -2 1 -10 -3 -17
-11z"/>
<path d="M2353 1305 c0 -8 4 -12 9 -9 5 3 6 10 3 15 -9 13 -12 11 -12 -6z"/>
<path d="M166 1282 c-3 -5 1 -9 9 -9 8 0 15 4 15 9 0 4 -4 8 -9 8 -6 0 -12 -4
-15 -8z"/>
<path d="M2355 1240 c3 -5 8 -10 11 -10 2 0 4 5 4 10 0 6 -5 10 -11 10 -5 0
-7 -4 -4 -10z"/>
<path d="M2386 1217 c3 -10 9 -15 12 -12 3 3 0 11 -7 18 -10 9 -11 8 -5 -6z"/>
<path d="M215 1201 c-3 -5 -2 -12 3 -15 5 -3 9 1 9 9 0 17 -3 19 -12 6z"/>
<path d="M2371 1194 c0 -11 3 -14 6 -6 3 7 2 16 -1 19 -3 4 -6 -2 -5 -13z"/>
<path d="M176 1158 c3 -4 11 -5 19 -1 21 7 19 12 -4 10 -11 0 -18 -5 -15 -9z"/>
<path d="M173 1125 c0 -8 4 -12 9 -9 5 3 6 10 3 15 -9 13 -12 11 -12 -6z"/>
<path d="M2376 1095 c-9 -26 -7 -32 5 -12 6 10 9 21 6 23 -2 3 -7 -2 -11 -11z"/>
<path d="M226 1082 c-3 -5 1 -9 9 -9 8 0 12 4 9 9 -3 4 -7 8 -9 8 -2 0 -6 -4
-9 -8z"/>
<path d="M215 1020 c3 -5 8 -10 11 -10 2 0 4 5 4 10 0 6 -5 10 -11 10 -5 0 -7
-4 -4 -10z"/>
<path d="M235 921 c-3 -5 -2 -12 3 -15 5 -3 9 1 9 9 0 17 -3 19 -12 6z"/>
<path d="M226 882 c-3 -5 1 -9 9 -9 8 0 12 4 9 9 -3 4 -7 8 -9 8 -2 0 -6 -4
-9 -8z"/>
<path d="M2275 390 c-4 -6 -11 -7 -17 -4 -7 4 -8 2 -4 -5 6 -9 12 -9 24 1 10
7 19 14 21 15 2 2 -1 3 -7 3 -6 0 -14 -5 -17 -10z"/>
<path d="M2130 369 c0 -5 -4 -7 -10 -4 -6 3 -7 -1 -4 -10 4 -9 7 -15 8 -13 1
2 8 11 15 21 9 11 10 17 2 17 -6 0 -11 -5 -11 -11z"/>
<path d="M2177 365 c-4 -8 -3 -16 1 -19 4 -3 9 4 9 15 2 23 -3 25 -10 4z"/>
<path d="M2207 367 c-3 -8 1 -14 8 -14 7 0 11 6 8 14 -3 7 -6 13 -8 13 -2 0
-5 -6 -8 -13z"/>
<path d="M1962 362 c2 -8 6 -12 8 -11 3 1 15 -3 27 -9 16 -9 24 -9 29 0 5 7 3
8 -6 3 -10 -6 -12 -4 -7 9 5 12 3 15 -6 9 -17 -11 -31 -10 -40 2 -6 6 -7 5 -5
-3z"/>
<path d="M2068 363 c6 -2 18 -2 25 0 6 3 1 5 -13 5 -14 0 -19 -2 -12 -5z"/>
<path d="M1860 351 c0 -7 -4 -10 -9 -6 -10 6 -36 -33 -28 -42 3 -2 8 5 12 16
3 12 10 19 15 16 10 -6 25 14 16 22 -3 4 -6 1 -6 -6z"/>
<path d="M1885 335 c-16 -14 -25 -25 -19 -25 10 0 54 37 54 45 0 8 -3 6 -35
-20z"/>
<path d="M2041 353 c-1 -17 16 -25 25 -12 4 7 3 9 -4 5 -5 -3 -13 0 -15 6 -4
9 -6 10 -6 1z"/>
<path d="M2146 343 c-6 -14 -5 -15 5 -6 7 7 10 15 7 18 -3 3 -9 -2 -12 -12z"/>
<path d="M1716 339 c3 -5 10 -6 16 -3 6 4 8 -2 4 -17 -3 -13 -3 -18 0 -11 5
10 9 10 22 0 14 -11 14 -10 -1 11 -15 23 -55 41 -41 20z"/>
<path d="M1925 341 c-3 -6 3 -9 14 -8 11 0 17 5 15 9 -7 11 -22 10 -29 -1z"/>
<path d="M1570 329 c0 -5 -4 -7 -10 -4 -5 3 -10 4 -10 1 0 -3 9 -10 19 -15 16
-9 18 -8 14 9 -6 21 -13 27 -13 9z"/>
<path d="M1646 323 c-6 -14 -5 -15 5 -6 7 7 10 15 7 18 -3 3 -9 -2 -12 -12z"/>
<path d="M1427 310 c-3 -11 -3 -20 -1 -20 2 0 8 9 14 20 6 11 7 20 2 20 -6 0
-12 -9 -15 -20z"/>
<path d="M1474 319 c-4 -7 -3 -9 4 -5 5 3 13 0 15 -6 4 -9 6 -10 6 -1 1 17
-16 25 -25 12z"/>
<path d="M1684 318 c-4 -6 -3 -8 4 -4 5 3 13 0 15 -6 3 -8 6 -6 6 5 1 19 -14
23 -25 5z"/>
<path d="M1970 319 c0 -5 5 -7 10 -4 6 3 10 8 10 11 0 2 -4 4 -10 4 -5 0 -10
-5 -10 -11z"/>
<path d="M2096 318 c3 -5 10 -6 15 -3 13 9 11 12 -6 12 -8 0 -12 -4 -9 -9z"/>
<path d="M1150 310 c-9 -6 -10 -10 -3 -10 6 0 15 5 18 10 8 12 4 12 -15 0z"/>
<path d="M1268 290 c-10 -18 -13 -32 -7 -36 5 -3 8 0 7 8 -2 9 10 13 39 12 23
0 40 3 38 7 -3 3 -18 5 -35 4 -26 -2 -30 0 -25 16 9 27 2 23 -17 -11z"/>
<path d="M1910 309 c0 -5 5 -7 10 -4 6 3 10 8 10 11 0 2 -4 4 -10 4 -5 0 -10
-5 -10 -11z"/>
<path d="M1175 300 c-4 -7 3 -8 21 -4 21 5 25 4 19 -6 -5 -9 -4 -11 4 -6 6 4
9 12 6 17 -8 12 -42 12 -50 -1z"/>
<path d="M1390 300 c0 -5 5 -10 11 -10 5 0 7 5 4 10 -3 6 -8 10 -11 10 -2 0
-4 -4 -4 -10z"/>
<path d="M1455 303 c3 -3 0 -11 -5 -18 -7 -8 -5 -12 4 -12 14 0 16 22 3 32 -4
3 -5 2 -2 -2z"/>
<path d="M1627 299 c7 -7 15 -10 18 -7 3 3 -2 9 -12 12 -14 6 -15 5 -6 -5z"/>
<path d="M2055 300 c-3 -5 -1 -10 4 -10 6 0 11 5 11 10 0 6 -2 10 -4 10 -3 0
-8 -4 -11 -10z"/>
<path d="M879 298 c-5 -18 -6 -38 -1 -34 7 8 12 36 6 36 -2 0 -4 -1 -5 -2z"/>
<path d="M935 290 c-3 -5 -12 -7 -20 -3 -8 3 -15 3 -15 0 0 -13 28 -13 45 -1
10 8 14 14 8 14 -7 0 -14 -4 -18 -10z"/>
<path d="M975 293 c3 -4 -5 -12 -17 -19 l-23 -12 26 1 c24 2 33 19 16 32 -4 3
-5 2 -2 -2z"/>
<path d="M1014 284 c-18 -14 -18 -15 4 -4 12 6 22 13 22 15 0 8 -5 6 -26 -11z"/>
<path d="M1110 292 c0 -4 8 -12 18 -19 15 -9 19 -8 19 3 0 7 -4 11 -9 8 -4 -3
-8 0 -8 5 0 6 -4 11 -10 11 -5 0 -10 -3 -10 -8z"/>
<path d="M377 271 c-4 -17 -3 -21 5 -13 5 5 8 16 6 23 -3 8 -7 3 -11 -10z"/>
<path d="M810 280 c0 -5 5 -10 10 -10 6 0 10 5 10 10 0 6 -4 10 -10 10 -5 0
-10 -4 -10 -10z"/>
<path d="M1064 278 c10 -6 22 -6 26 -2 5 5 -3 10 -18 11 -22 1 -24 0 -8 -9z"/>
<path d="M1546 278 c3 -5 10 -6 15 -3 13 9 11 12 -6 12 -8 0 -12 -4 -9 -9z"/>
<path d="M1737 275 c-4 -8 -3 -16 1 -19 4 -3 9 4 9 15 2 23 -3 25 -10 4z"/>
<path d="M567 271 c6 -7 9 -20 6 -27 -3 -8 -3 -14 0 -14 14 0 14 30 -1 41 -14
11 -15 11 -5 0z"/>
<path d="M660 276 c0 -2 9 -6 20 -9 11 -3 18 -1 14 4 -5 9 -34 13 -34 5z"/>
<path d="M455 261 c-3 -5 0 -13 6 -17 7 -4 9 -3 5 4 -3 5 0 13 6 15 9 4 10 6
1 6 -6 1 -14 -3 -18 -8z"/>
<path d="M616 255 c4 -10 2 -15 -6 -13 -7 2 -15 -4 -17 -12 -4 -13 -3 -13 6 0
10 14 16 7 11 -15 -1 -5 2 -7 6 -2 12 12 15 45 4 52 -6 3 -7 -1 -4 -10z"/>
<path d="M895 261 c-3 -5 0 -13 7 -18 16 -10 42 -14 33 -5 -4 4 -12 7 -18 7
-7 1 -11 6 -9 13 2 14 -4 16 -13 3z"/>
</g>
</svg>
